PathFileType	4	(X/Y/Z)	pose_F01_0-96.trc
DataRate	CameraRate	NumFrames	NumMarkers	Units	OrigDataRate	OrigDataStartFrame	OrigNumFrames
30	30	6	21	m	30	84	96
Frame#	Time	CHip			RHip			RKnee			RAnkle			RBigToe			RSmallToe			RHeel			LHip			LKnee			LAnkle			LBigToe			LSmallToe			LHeel			Neck			Nose			RShoulder			RElbow			RWrist			LShoulder			LElbow			LWrist			
		X1	Y1	Z1	X2	Y2	Z2	X3	Y3	Z3	X4	Y4	Z4	X5	Y5	Z5	X6	Y6	Z6	X7	Y7	Z7	X8	Y8	Z8	X9	Y9	Z9	X10	Y10	Z10	X11	Y11	Z11	X12	Y12	Z12	X13	Y13	Z13	X14	Y14	Z14	X15	Y15	Z15	X16	Y16	Z16	X17	Y17	Z17	X18	Y18	Z18	X19	Y19	Z19	X20	Y20	Z20	X21	Y21	Z21	
84	2.8	-0.0887715717744117	1.8358270745077263	-0.6232918544805748	-0.10342322710604035	1.8354869779375005	-0.5514810301482556	-0.1190495240357073	1.709330676788685	-0.528130164697066	-0.1249464727917066	1.5898981561078016	-0.5138637668777319	-0.15374331123796248	1.5576113268884983	-0.4692597155046561	-0.1496954707975631	1.5657510826664631	-0.44760795074098403	-0.1220026374718615	1.5763179154050684	-0.5282105396697668	-0.0692038591241765	1.8386797369790135	-0.6911242096711537	-0.07751799906924627	1.70926619432885	-0.6642239457809752	-0.0861538605992621	1.5818985322396129	-0.6530519101563984	-0.11071150960615876	1.5440316396099696	-0.60873789580541	-0.09972640616197176	1.5480711714597712	-0.6503656625439023	-0.07930278244277064	1.567248021632726	-0.6573528674868515	-0.07344463837543089	1.9959256864844632	-0.660359869372979	-0.10909055633955161	2.0492719558634884	-0.6174586775510668	-0.09014393798488166	1.9915514556000116	-0.5628022266744281	-0.12270441285688694	1.9200152514066393	-0.49694279994092033	-0.15430227619682446	1.8755295765154696	-0.4919937383295285	-0.05072022599333353	1.9987810382940818	-0.7531066081723647	-0.034022828065506966	1.9271540408602597	-0.799562822620516	-0.09893962265404468	1.8758131783968892	-0.7297244916008846
85	2.8333333333333335	-0.08811417896818938	1.8332437979031402	-0.6196257610720697	-0.10540805037757338	1.8338549102628066	-0.5488812072818907	-0.11830040449750752	1.7067118256773526	-0.5242820059954618	-0.12882964150209458	1.5909469082460646	-0.509892828628763	-0.15555730632050077	1.5585632986296722	-0.45863491363911585	-0.1534521474474445	1.5667941203402922	-0.4434667930337648	-0.1259392672884846	1.5776797159554825	-0.5243189940657041	-0.06905927373099958	1.8360313097328749	-0.690608380941483	-0.07749358488823448	1.708793338139422	-0.6641853664428488	-0.08688214075363743	1.5786297100369029	-0.6559539460983611	-0.11150951089112338	1.5430816748334502	-0.6122102244006064	-0.1019785199713701	1.5455050034729072	-0.6477434483595329	-0.07672505991339021	1.5641676949646557	-0.6601285725003727	-0.0720238539119412	1.9957023520556993	-0.6539727280493766	-0.11258445760199791	2.047830255441708	-0.6095790648525776	-0.08934267170834327	1.9913965771267	-0.5595176138786863	-0.12003563436508453	1.9161603607185187	-0.4953994871033672	-0.15430227619682446	1.8755295765154696	-0.4919937383295285	-0.054431495780456016	1.9986315067250624	-0.7451901498670769	-0.036485514548541154	1.9227435565648094	-0.7965929787187311	-0.09571525453614513	1.8796121105881116	-0.716134238642546
86	2.8666666666666667	-0.08809707197842272	1.8398195939655422	-0.6205788136047555	-0.1053206948783542	1.8366018397210442	-0.5493122015122851	-0.12049535647111714	1.7081323841534817	-0.5219137904799472	-0.1352947059960235	1.5893342529930825	-0.5023744677286817	-0.16387367415598075	1.5590116285497166	-0.45851312086288326	-0.15972055702416363	1.566964238226141	-0.43678977163918975	-0.13020863078141973	1.5774101316472888	-0.519612297556049	-0.07063818768083929	1.841429149515012	-0.6858547851440473	-0.0796359892197287	1.7114323381835765	-0.6622032091900366	-0.08372879724366812	1.5801646790073989	-0.6556164384224826	-0.11056135646112109	1.5424962445523052	-0.6087995988219546	-0.1020520744745941	1.5456265301619305	-0.6475837476053617	-0.07673857475145103	1.564314444238583	-0.6601162252474597	-0.07775729127676875	1.9941936294653306	-0.6436416649261872	-0.12241736693357518	2.0434827371001516	-0.5945977530121785	-0.09484650606939385	1.988930487932002	-0.5491129456630078	-0.12123571376478282	1.9122042381926665	-0.4892151954629549	-0.15430227619682446	1.8755295765154696	-0.4919937383295285	-0.058986856355375636	1.998438415440228	-0.7402096950945959	-0.037059536517440914	1.9195300609064767	-0.7987269646091816	-0.8478359686132502	1.8708340864238657	0.09410858926649102
87	2.9	-0.08952895511291228	1.834877566986348	-0.6140643614271194	-0.10471707766768014	1.8328908933240822	-0.5453422028790715	-0.1190398588397492	1.709151911005612	-0.519588779369924	-0.13514614480603301	1.5880625510888413	-0.502448782305445	-0.16495041504853813	1.5591434116642449	-0.45302116249446134	-0.16172142109165102	1.5670803126509496	-0.43450768313065496	-0.13045045054369986	1.576018371433601	-0.5189296528857097	-0.07507570246805803	1.8390629965666945	-0.6804598792370494	-0.07943944400761639	1.709906951456803	-0.6621710956179823	-0.08391264040530798	1.5786952515902943	-0.6549858727421186	-0.11379082229504761	1.5440176305086681	-0.6096254143275349	-0.10230778261388512	1.5465023648868212	-0.64763375726143	-0.07702706096592209	1.5640659086119695	-0.6593231734800213	-0.0834521318222827	1.991483284692024	-0.6329809946625917	-0.1330461456900478	2.039568891383398	-0.5831698663550788	-0.09696705112128372	1.9879044075173138	-0.5466732324296785	-0.12233014682365212	1.9081371861523533	-0.4827412834706369	-0.15430227619682446	1.8755295765154696	-0.4919937383295285	-0.06942552743855042	1.9980616158849074	-0.7248962274561038	-0.0432825907077571	1.9167986591448474	-0.7880503319801311	-1.599956682690355	1.86205606225962	0.9043514171755279
88	2.933333333333333	-0.08820039098890486	1.8374771921972983	-0.6079278563126669	-0.10690184404075774	1.8353900881371916	-0.543236768205713	-0.1171784105156502	1.708066135158432	-0.5213881842682784	-0.1351813550761043	1.5878860864754858	-0.5025164104495038	-0.16399330112637145	1.5571055099053108	-0.457992320797444	-0.16040903363656983	1.565277316659872	-0.4403440709520318	-0.13230540031531965	1.5745990892055377	-0.5169786144116852	-0.0744832680994346	1.8403912164731744	-0.677318755518946	-0.07676833942659216	1.7087493368142879	-0.6608998057347502	-0.08618029573710573	1.579024430518902	-0.6526734037597759	-0.11130070265817774	1.542111202901808	-0.612161455720925	-0.1001084241017409	1.5471543500484377	-0.6498577611454932	-0.07893381904995561	1.5648511570833787	-0.6574943867151395	-0.08921825696869098	1.9914673908028393	-0.6230140837552977	-0.140588898331751	2.03792807879359	-0.5709302326347535	-0.10440499906179457	1.9867116157997529	-0.5340650146826678	-0.12691461185315034	1.9091556234546334	-0.4695759273253762	-0.15430227619682446	1.8755295765154696	-0.4919937383295285	-0.07255251537101472	1.9965408282167147	-0.7137478433389159	-0.04515768983513491	1.916716212151745	-0.7822396467393843	-1.6055315602444038	1.8648829412640282	0.9104000284779156
89	2.966666666666667	-0.09650614597838732	1.8371584511444752	-0.5982739855925849	-0.11025499003591832	1.8335769058291047	-0.5349541054724355	-0.12128309195626093	1.7078351307042128	-0.5167233751148388	-0.13737938089977708	1.5865865205235947	-0.4996285257446005	-0.1649952458564852	1.557137987208802	-0.4524324278574136	-0.161658976580295	1.5667664039268876	-0.4344781971595561	-0.13253510990127665	1.5758475955645184	-0.5166736609264265	-0.08310696308859364	1.840691213739587	-0.6678162577552743	-0.08126948153260546	1.709417048195998	-0.6560769863155411	-0.08474223023361027	1.578638278313451	-0.6581418257889239	-0.11136029726145905	1.5421595960523833	-0.6120127152242536	-0.1020198227335697	1.5453325441497154	-0.6476619244924212	-0.07690528573965011	1.5629896057343171	-0.6592981926160315	-0.09345067933678035	1.9923153950019146	-0.6179573820866253	-0.14481105858141102	2.038144137958206	-0.5669430026193015	-0.1084050951069922	1.9882723442704284	-0.5291363720821102	-0.13002291761316537	1.908908736389938	-0.46156310265764616	-0.15430227619682446	1.8755295765154696	-0.4919937383295285	-0.07627225295493678	1.9961613651553567	-0.705703585361032	-0.052928210976600394	1.9169016285490208	-0.7665735140718237	-1.6111064377984525	1.8677098202684366	0.9164486397803032
